<?xml version="1.0" encoding="utf-8"?>
<!-- Generator: Adobe Illustrator 16.0.0, SVG Export Plug-In . SVG Version: 6.00 Build 0)  -->
<!DOCTYPE svg PUBLIC "-//W3C//DTD SVG 1.1//EN" "http://www.w3.org/Graphics/SVG/1.1/DTD/svg11.dtd">
<svg version="1.1" id="Layer_1" xmlns="http://www.w3.org/2000/svg" xmlns:xlink="http://www.w3.org/1999/xlink" x="0px" y="0px"
	 width="288.637px" height="272.047px" viewBox="0 0 288.637 272.047" enable-background="new 0 0 288.637 272.047"
	 xml:space="preserve">
<circle fill="none" stroke="#000000" stroke-width="10" stroke-miterlimit="10" cx="137.079" cy="134.172" r="51.188"/>
<polygon fill="none" stroke="#000000" stroke-width="10" stroke-miterlimit="10" points="156.014,271.047 119.428,271.047 
	110.442,233.659 83.484,223.871 52.034,243.448 27.003,216.764 48.125,184.632 36.82,158.274 1.025,148.729 2.193,112.162 
	39.85,104.375 50.494,77.744 31.932,45.684 31.932,44.659 60.543,21.857 90.872,45.496 118.054,36.349 130.747,1.601 130.747,1.601 
	167.332,1.438 176.484,38.787 203.484,48.456 234.849,28.74 260.122,55.192 239.296,87.518 250.842,113.771 286.723,122.988 
	287.598,122.988 286.189,159.546 248.483,167.086 237.664,193.646 254.174,222.574 225.023,247.828 193.751,225.453 
	166.966,235.706 "/>
</svg>
